,
Brought to you by  http://www.scenetime.com/signup.php
 
 Hottest scene tracker on the net !!!   
 
No fake torrents from scenebalance 
shame on those who comment fake before downloading my torrents

    seed back for speed


 



...................................NFO:.................................................








































          
          
              
              
                    
                    
                    
                    

Dawning.2011.DVDSCR.XVID.AC3-SiC

[img]http://leetleech.org/images/49117208698081332821.jpg[/img]

IMDB Link
http://www.imdb.com/title/tt1530660/


Description:

Takes place at a Northern Minnesota lake cabin where a brother and sister visit their father and step-mom. As the first night unfolds with uncomfortable small-talk and tension, tragedy strikes. 


General
Complete name                    : E:\Dawning.2009.DVDSCR.XviD.AC3-SiC.avi
Format                           : AVI
Format/Info                      : Audio Video Interleave
File size                        : 1.37 GiB
Duration                         : 1h 20mn
Overall bit rate                 : 2 443 Kbps
Writing application              : VirtualDubMod 1.5.4.1 (build 2178/release)
Writing library                  : VirtualDubMod build 2178/release

Video
ID                               : 0
Format                           : MPEG-4 Visual
Format profile                   : Advanced Simple@L5
Format settings, BVOP            : No
Format settings, QPel            : No
Format settings, GMC             : No warppoints
Format settings, Matrix          : Custom
Codec ID                         : XVID
Codec ID/Hint                    : XviD
Duration                         : 1h 20mn
Bit rate                         : 2 243 Kbps
Width                            : 720 pixels
Height                           : 416 pixels
Display aspect ratio             : 16:9
Frame rate                       : 29.970 fps
Color space                      : YUV
Chroma subsampling               : 4:2:0
Bit depth                        : 8 bits
Scan type                        : Progressive
Compression mode                 : Lossy
Bits/(Pixel*Frame)               : 0.250
Stream size                      : 1.26 GiB (92%)
Writing library                  : XviD 63

Audio
ID                               : 1
Format                           : AC-3
Format/Info                      : Audio Coding 3
Mode extension                   : CM (complete main)
Codec ID                         : 2000
Duration                         : 1h 20mn
Bit rate mode                    : Constant
Bit rate                         : 192 Kbps
Channel(s)                       : 2 channels
Channel positions                : Front: L R
Sampling rate                    : 48.0 KHz
Bit depth                        : 16 bits
Compression mode                 : Lossy
Stream size                      : 110 MiB (8%)
Alignment                        : Split accross interleaves
Interleave, duration             : 96 ms (2.88 video frames)
Interleave, preload duration     : 96 ms


Screenshots
[img]http://leetleech.org/images/11420277424608684799.jpg[/img]
[img]http://leetleech.org/images/83046060128944369967.jpg[/img]
[img]http://leetleech.org/images/88629321854258843319.jpg[/img]
[img]http://leetleech.org/images/25428978928041328799.jpg[/img]
[img]http://leetleech.org/images/82622273301568622235.jpg[/img]


Note:
Special thanks to our friend.


Encoder: thefuzz

  
Enjoy!

Respects to CaptainHomey, Cyanide, CM8, Rx, Pirate666, THC, ELEKTRI4KA, Killerhz and XtremE